# xmcd
#
# Track frame offsets:
#	150
#	19721
#	39349
#	61725
#	82904
#	106088
#	125825
#	148789
#	171559
#	191392
#	215818
#	241617
#
# Disc length: 3524 seconds
#
# Revision: 2
# Processed by: cddbd v1.5.1PL0 Copyright (c) Steve Scherf et al.
# Submitted via: dBpowerAMP V4.0
#
DISCID=9f0dc20c
DTITLE=Aiuchi, Rina - Single Collection
DYEAR=2003
DGENRE=JPop
TTITLE0=FULL JUMP
TTITLE1=I can't stop my love for you
TTITLE2=Koi wa Thrill, Shock, Suspense
TTITLE3=Sincerely Yours
TTITLE4=Forever You ~Eien ni Kimito~
TTITLE5=NAVY BLUE
TTITLE6=Kaze no Nai Umi de Dakishimete
TTITLE7=Close To Your Heart
TTITLE8=It's crazy for you
TTITLE9=Run up
TTITLE10=Deep Freeze
TTITLE11=Kuuki
EXTD=
EXTT0=
EXTT1=
EXTT2=
EXTT3=
EXTT4=
EXTT5=
EXTT6=
EXTT7=
EXTT8=
EXTT9=
EXTT10=
EXTT11=
PLAYORDER=
